<svg xmlns="http://www.w3.org/2000/svg" height="800" width="1200" viewBox="-25.177275 -9.7884 218.20305 58.7304"><g fill="none"><path fill="#25F4EE" d="M13.3946 15.4552v-1.5456c-.5152-.1287-1.0304-.1286-1.5455-.1286C5.2806 13.781 0 19.0614 0 25.63c0 3.9925 2.0607 7.5988 5.023 9.6595l-.1288-.1288c-1.932-2.0607-2.9623-4.894-2.9623-7.8563 0-6.5685 5.1518-11.7204 11.4627-11.8492z"/><path fill="#25F4EE" d="M13.6524 32.7137c2.9623 0 5.2806-2.3183 5.4094-5.2805V1.6743h4.6366C23.5696 1.1592 23.5696.644 23.5696 0h-6.4397v25.7588c-.1288 2.8335-2.4471 5.1518-5.4094 5.1518-.9015 0-1.803-.2576-2.447-.644 1.0303 1.4168 2.5758 2.4471 4.379 2.4471zM32.585 10.4324V8.8869c-1.8032 0-3.4775-.5152-4.8942-1.4168 1.2879 1.4168 2.9622 2.576 4.8941 2.9623z"/><path fill="#FE2C55" d="M27.6906 7.47c-1.4167-1.5455-2.1895-3.6062-2.1895-5.9245h-1.803c.515 2.5759 2.0606 4.6366 3.9925 5.9245zM11.849 20.0918c-2.9622 0-5.4093 2.447-5.4093 5.4093 0 2.0607 1.288 3.8639 2.9623 4.7654-.644-.9015-1.0304-1.9319-1.0304-3.091 0-2.9623 2.4471-5.4094 5.4094-5.4094.5152 0 1.0303.1288 1.5455.2576v-6.5685c-.5152-.1288-1.0303-.1288-1.5455-.1288h-.2576v4.8942c-.644 0-1.1592-.1288-1.6743-.1288z"/><path fill="#FE2C55" d="M32.5848 10.4325v4.8941c-3.3486 0-6.4397-1.0303-8.8868-2.8334v13.137c0 6.5685-5.2806 11.849-11.849 11.849-2.576 0-4.8942-.7727-6.8262-2.0607 2.1895 2.3183 5.2806 3.735 8.6293 3.735 6.5685 0 11.849-5.2805 11.849-11.849v-13.137c2.576 1.8031 5.667 2.8335 8.8868 2.8335v-6.4397c-.5151 0-1.1591 0-1.803-.1288z"/><path fill="#fff" d="M23.698 25.63V12.493c2.5759 1.8032 5.667 2.8334 8.8868 2.8334v-5.023c-1.9319-.3863-3.6062-1.4167-4.8942-2.8334-2.0607-1.288-3.4774-3.4774-3.8638-5.9245h-4.7654v25.7589c-.1288 2.8334-2.447 5.1517-5.4093 5.1517-1.8032 0-3.3487-.9016-4.379-2.1896-1.6744-.7728-2.8335-2.5759-2.8335-4.6366 0-2.9622 2.447-5.4092 5.4093-5.4092.5152 0 1.0304.1287 1.5456.2575v-5.023C6.9548 15.584 1.803 20.8647 1.803 27.3044c0 3.091 1.1591 5.9244 3.2198 8.1139 1.932 1.288 4.2503 2.1896 6.8261 2.1896 6.5685-.1288 11.8491-5.5383 11.8491-11.978zM42.4246 8.3468h20.9937l-1.884 6.056h-5.383v22.2048h-6.7288V14.268h-6.8633zm55.4452 0h21.532l-1.884 6.056h-5.9214v22.2048h-6.8633V14.268h-6.8633zm-33.1056 9.0165h6.7287v19.1096h-6.7287zm9.4202-9.1512h6.7288v13.1884l6.7287-6.5942h8.0745l-8.4782 8.209 9.4203 13.4576h-7.4017l-6.325-9.4203-2.0186 1.884v7.4017h-6.7288zm71.1901 0h6.7288v13.1884l6.7287-6.5942h8.0745l-8.4782 8.209 9.4202 13.4576h-7.4016l-6.325-9.4203-2.0186 1.884v7.4017h-6.7288zm-77.2459 6.8635c1.858 0 3.3643-1.5063 3.3643-3.3644 0-1.858-1.5063-3.3644-3.3643-3.3644-1.8581 0-3.3644 1.5063-3.3644 3.3644 0 1.8581 1.5063 3.3644 3.3644 3.3644z"/><path fill="#25F4EE" d="M118.4596 25.034c0-6.0559 4.7102-11.0352 10.6315-11.4389h-.942c-6.3251 0-11.5735 5.1139-11.5735 11.5735 0 6.325 5.1138 11.5734 11.5734 11.5734h.942c-5.9212-.6728-10.6314-5.6521-10.6314-11.708z"/><path fill="#FE2C55" d="M131.6478 13.4604h-1.0766c5.9214.4037 10.6315 5.383 10.6315 11.4389s-4.7101 11.0351-10.6315 11.4389h1.0766c6.325 0 11.5735-5.1139 11.5735-11.5735 0-6.0559-5.1138-11.3043-11.5735-11.3043z"/><path fill="#fff" d="M129.8982 13.4604c-6.325 0-11.5734 5.1139-11.5734 11.5735 0 6.325 5.1138 11.5734 11.5734 11.5734 6.4596 0 11.5735-5.1138 11.5735-11.5734 0-6.325-5.2484-11.5735-11.5735-11.5735zm0 17.2256c-3.0952 0-5.6521-2.557-5.6521-5.6521 0-3.0953 2.557-5.6522 5.6521-5.6522 3.0953 0 5.6522 2.557 5.6522 5.6522 0 3.0952-2.557 5.6521-5.6522 5.6521z"/></g></svg>